<?xml version="1.0" encoding="UTF-8"?>
<svg width="440px" height="218px" viewBox="0 0 440 218" version="1.1" xmlns="http://www.w3.org/2000/svg" xmlns:xlink="http://www.w3.org/1999/xlink">
    <!-- Generator: Sketch 53.2 (72643) - https://sketchapp.com -->
    <title>Group 6</title>
    <desc>Created with Sketch.</desc>
    <defs>
        <linearGradient x1="-5.52305818%" y1="15.9857933%" x2="57.8005403%" y2="67.2617601%" id="linearGradient-1">
            <stop stop-color="#00D3FF" offset="0%"></stop>
            <stop stop-color="#00BAFF" offset="53.1329181%"></stop>
            <stop stop-color="#00F1FF" offset="100%"></stop>
        </linearGradient>
    </defs>
    <g id="Page-1" stroke="none" stroke-width="1" fill="none" fill-rule="evenodd">
        <g id="Desktop-HD" transform="translate(-1000.000000, -806.000000)" fill="url(#linearGradient-1)">
            <g id="Group-6" transform="translate(924.000000, 635.000000)">
                <path d="M23,536 C54.242328,517.049012 73.8328042,487.342058 81.7714286,446.879138 C93.6793651,386.184758 150.146032,240.210931 340.673016,212.168591 C467.691005,193.473698 556.936508,157.108288 608.409524,103.072363 L628,37 L23,37 L23,536 Z" id="Path-67-Copy" transform="translate(325.500000, 286.500000) scale(-1, -1) translate(-325.500000, -286.500000) "></path>
                <path d="M0,499 C31.242328,480.049012 50.8328042,450.342058 58.7714286,409.879138 C70.6793651,349.184758 127.146032,203.210931 317.673016,175.168591 C444.691005,156.473698 533.936508,120.108288 585.409524,66.0723634 L605,0 L0,0 L0,499 Z" id="Path-67-Copy-3" opacity="0.12202381" transform="translate(302.500000, 249.500000) scale(-1, -1) translate(-302.500000, -249.500000) "></path>
            </g>
        </g>
    </g>
</svg>